<?xml version="1.0" encoding="UTF-8" standalone="no"?>
<!DOCTYPE svg PUBLIC "-//W3C//DTD SVG 1.1//EN"
 "http://www.w3.org/Graphics/SVG/1.1/DTD/svg11.dtd">
<!-- Generated by graphviz version 2.38.0 (20140413.2041)
 -->
<!-- Title: G Pages: 1 -->
<svg width="638pt" height="714pt"
 viewBox="0.00 0.00 638.00 714.00" xmlns="http://www.w3.org/2000/svg" xmlns:xlink="http://www.w3.org/1999/xlink">
<g id="graph0" class="graph" transform="scale(1 1) rotate(0) translate(4 710)">
<title>G</title>
<polygon fill="white" stroke="none" points="-4,4 -4,-710 634,-710 634,4 -4,4"/>
<g id="clust1" class="cluster"><title>cluster_Global</title>
<path fill="none" stroke="gray" d="M20,-8C20,-8 610,-8 610,-8 616,-8 622,-14 622,-20 622,-20 622,-686 622,-686 622,-692 616,-698 610,-698 610,-698 20,-698 20,-698 14,-698 8,-692 8,-686 8,-686 8,-20 8,-20 8,-14 14,-8 20,-8"/>
<text text-anchor="middle" x="315" y="-685.2" font-family="Times,serif" font-size="11.00" fill="gray">Global</text>
</g>
<g id="clust2" class="cluster"><title>cluster_\lukaszmakuch</title>
<path fill="none" stroke="gray" d="M28,-16C28,-16 602,-16 602,-16 608,-16 614,-22 614,-28 614,-28 614,-658 614,-658 614,-664 608,-670 602,-670 602,-670 28,-670 28,-670 22,-670 16,-664 16,-658 16,-658 16,-28 16,-28 16,-22 22,-16 28,-16"/>
<text text-anchor="middle" x="315" y="-657.2" font-family="Times,serif" font-size="11.00" fill="gray">lukaszmakuch</text>
</g>
<g id="clust3" class="cluster"><title>cluster_\lukaszmakuch\LmCondition</title>
<path fill="none" stroke="gray" d="M36,-24C36,-24 594,-24 594,-24 600,-24 606,-30 606,-36 606,-36 606,-630 606,-630 606,-636 600,-642 594,-642 594,-642 36,-642 36,-642 30,-642 24,-636 24,-630 24,-630 24,-36 24,-36 24,-30 30,-24 36,-24"/>
<text text-anchor="middle" x="315" y="-629.2" font-family="Times,serif" font-size="11.00" fill="gray">LmCondition</text>
</g>
<g id="clust4" class="cluster"><title>cluster_\lukaszmakuch\LmCondition\EqualityComparator</title>
<path fill="none" stroke="gray" d="M185,-488C185,-488 586,-488 586,-488 592,-488 598,-494 598,-500 598,-500 598,-602 598,-602 598,-608 592,-614 586,-614 586,-614 185,-614 185,-614 179,-614 173,-608 173,-602 173,-602 173,-500 173,-500 173,-494 179,-488 185,-488"/>
<text text-anchor="middle" x="385.5" y="-601.2" font-family="Times,serif" font-size="11.00" fill="gray">EqualityComparator</text>
</g>
<g id="clust5" class="cluster"><title>cluster_\lukaszmakuch\LmCondition\IntersectDetector</title>
<path fill="none" stroke="gray" d="M188.5,-354C188.5,-354 582.5,-354 582.5,-354 588.5,-354 594.5,-360 594.5,-366 594.5,-366 594.5,-468 594.5,-468 594.5,-474 588.5,-480 582.5,-480 582.5,-480 188.5,-480 188.5,-480 182.5,-480 176.5,-474 176.5,-468 176.5,-468 176.5,-366 176.5,-366 176.5,-360 182.5,-354 188.5,-354"/>
<text text-anchor="middle" x="385.5" y="-467.2" font-family="Times,serif" font-size="11.00" fill="gray">IntersectDetector</text>
</g>
<g id="clust6" class="cluster"><title>cluster_\lukaszmakuch\LmCondition\CompositeSimplifier</title>
<path fill="none" stroke="gray" d="M444.5,-130C444.5,-130 536.5,-130 536.5,-130 542.5,-130 548.5,-136 548.5,-142 548.5,-142 548.5,-334 548.5,-334 548.5,-340 542.5,-346 536.5,-346 536.5,-346 444.5,-346 444.5,-346 438.5,-346 432.5,-340 432.5,-334 432.5,-334 432.5,-142 432.5,-142 432.5,-136 438.5,-130 444.5,-130"/>
<text text-anchor="middle" x="490.5" y="-333.2" font-family="Times,serif" font-size="11.00" fill="gray">CompositeSimplifier</text>
</g>
<g id="clust7" class="cluster"><title>cluster_\lukaszmakuch\LmCondition\CompositeSimplifier\ORRemover</title>
<path fill="none" stroke="gray" d="M452.5,-138C452.5,-138 528.5,-138 528.5,-138 534.5,-138 540.5,-144 540.5,-150 540.5,-150 540.5,-306 540.5,-306 540.5,-312 534.5,-318 528.5,-318 528.5,-318 452.5,-318 452.5,-318 446.5,-318 440.5,-312 440.5,-306 440.5,-306 440.5,-150 440.5,-150 440.5,-144 446.5,-138 452.5,-138"/>
<text text-anchor="middle" x="490.5" y="-305.2" font-family="Times,serif" font-size="11.00" fill="gray">ORRemover</text>
</g>
<!-- \\lukaszmakuch\\LmCondition\\EqualityComparator\\EqualityComparatorProxy -->
<g id="node1" class="node"><title>\\lukaszmakuch\\LmCondition\\EqualityComparator\\EqualityComparatorProxy</title>
<polygon fill="none" stroke="black" points="576.5,-586 404.5,-586 404.5,-550 576.5,-550 576.5,-586"/>
<text text-anchor="middle" x="490.5" y="-565.2" font-family="Courier,monospace" font-size="11.00">EqualityComparatorProxy</text>
</g>
<!-- \\lukaszmakuch\\LmCondition\\EqualityComparator\\EqualityComparator -->
<g id="node3" class="node"><title>\\lukaszmakuch\\LmCondition\\EqualityComparator\\EqualityComparator</title>
<polygon fill="none" stroke="black" points="319,-559 181,-559 181,-523 319,-523 319,-559"/>
<text text-anchor="middle" x="250" y="-538.2" font-family="Courier,monospace" font-size="11.00">EqualityComparator</text>
</g>
<!-- \\lukaszmakuch\\LmCondition\\EqualityComparator\\EqualityComparatorProxy&#45;&gt;\\lukaszmakuch\\LmCondition\\EqualityComparator\\EqualityComparator -->
<g id="edge4" class="edge"><title>\\lukaszmakuch\\LmCondition\\EqualityComparator\\EqualityComparatorProxy&#45;&gt;\\lukaszmakuch\\LmCondition\\EqualityComparator\\EqualityComparator</title>
<path fill="none" stroke="black" stroke-dasharray="1,5" d="M404.406,-558.367C379.942,-555.597 353.383,-552.59 329.346,-549.869"/>
<polygon fill="none" stroke="black" points="329.543,-546.369 319.213,-548.722 328.756,-553.325 329.543,-546.369"/>
</g>
<!-- \\lukaszmakuch\\LmCondition\\EqualityComparator\\CompositeEqualityComparator -->
<g id="node2" class="node"><title>\\lukaszmakuch\\LmCondition\\EqualityComparator\\CompositeEqualityComparator</title>
<polygon fill="none" stroke="black" points="590,-532 391,-532 391,-496 590,-496 590,-532"/>
<text text-anchor="middle" x="490.5" y="-511.2" font-family="Courier,monospace" font-size="11.00">CompositeEqualityComparator</text>
</g>
<!-- \\lukaszmakuch\\LmCondition\\EqualityComparator\\CompositeEqualityComparator&#45;&gt;\\lukaszmakuch\\LmCondition\\EqualityComparator\\EqualityComparator -->
<g id="edge5" class="edge"><title>\\lukaszmakuch\\LmCondition\\EqualityComparator\\CompositeEqualityComparator&#45;&gt;\\lukaszmakuch\\LmCondition\\EqualityComparator\\EqualityComparator</title>
<path fill="none" stroke="black" stroke-dasharray="1,5" d="M390.771,-525.177C370.255,-527.499 348.904,-529.917 329.245,-532.142"/>
<polygon fill="none" stroke="black" points="328.675,-528.684 319.133,-533.287 329.463,-535.64 328.675,-528.684"/>
</g>
<!-- \\lukaszmakuch\\LmCondition\\IntersectDetector\\IntersectDetectorProxy -->
<g id="node4" class="node"><title>\\lukaszmakuch\\LmCondition\\IntersectDetector\\IntersectDetectorProxy</title>
<polygon fill="none" stroke="black" points="573,-452 408,-452 408,-416 573,-416 573,-452"/>
<text text-anchor="middle" x="490.5" y="-431.2" font-family="Courier,monospace" font-size="11.00">IntersectDetectorProxy</text>
</g>
<!-- \\lukaszmakuch\\LmCondition\\IntersectDetector\\IntersectDetector -->
<g id="node6" class="node"><title>\\lukaszmakuch\\LmCondition\\IntersectDetector\\IntersectDetector</title>
<polygon fill="none" stroke="black" points="315.5,-425 184.5,-425 184.5,-389 315.5,-389 315.5,-425"/>
<text text-anchor="middle" x="250" y="-404.2" font-family="Courier,monospace" font-size="11.00">IntersectDetector</text>
</g>
<!-- \\lukaszmakuch\\LmCondition\\IntersectDetector\\IntersectDetectorProxy&#45;&gt;\\lukaszmakuch\\LmCondition\\IntersectDetector\\IntersectDetector -->
<g id="edge1" class="edge"><title>\\lukaszmakuch\\LmCondition\\IntersectDetector\\IntersectDetectorProxy&#45;&gt;\\lukaszmakuch\\LmCondition\\IntersectDetector\\IntersectDetector</title>
<path fill="none" stroke="black" stroke-dasharray="1,5" d="M407.756,-424.746C381.209,-421.741 351.901,-418.423 325.881,-415.477"/>
<polygon fill="none" stroke="black" points="326.037,-411.972 315.707,-414.325 325.25,-418.928 326.037,-411.972"/>
</g>
<!-- \\lukaszmakuch\\LmCondition\\IntersectDetector\\CompositeIntersectDetector -->
<g id="node5" class="node"><title>\\lukaszmakuch\\LmCondition\\IntersectDetector\\CompositeIntersectDetector</title>
<polygon fill="none" stroke="black" points="586.5,-398 394.5,-398 394.5,-362 586.5,-362 586.5,-398"/>
<text text-anchor="middle" x="490.5" y="-377.2" font-family="Courier,monospace" font-size="11.00">CompositeIntersectDetector</text>
</g>
<!-- \\lukaszmakuch\\LmCondition\\IntersectDetector\\CompositeIntersectDetector&#45;&gt;\\lukaszmakuch\\LmCondition\\IntersectDetector\\IntersectDetector -->
<g id="edge6" class="edge"><title>\\lukaszmakuch\\LmCondition\\IntersectDetector\\CompositeIntersectDetector&#45;&gt;\\lukaszmakuch\\LmCondition\\IntersectDetector\\IntersectDetector</title>
<path fill="none" stroke="black" stroke-dasharray="1,5" d="M394.21,-390.788C371.472,-393.362 347.522,-396.073 325.853,-398.526"/>
<polygon fill="none" stroke="black" points="325.286,-395.068 315.744,-399.671 326.074,-402.023 325.286,-395.068"/>
</g>
<!-- \\lukaszmakuch\\LmCondition\\CompositeSimplifier\\ORRemover\\Decomposer -->
<g id="node7" class="node"><title>\\lukaszmakuch\\LmCondition\\CompositeSimplifier\\ORRemover\\Decomposer</title>
<polygon fill="none" stroke="black" points="532.5,-290 448.5,-290 448.5,-254 532.5,-254 532.5,-290"/>
<text text-anchor="middle" x="490.5" y="-269.2" font-family="Courier,monospace" font-size="11.00">Decomposer</text>
</g>
<!-- \\lukaszmakuch\\LmCondition\\CompositeSimplifier\\ORRemover\\ORRemover -->
<g id="node8" class="node"><title>\\lukaszmakuch\\LmCondition\\CompositeSimplifier\\ORRemover\\ORRemover</title>
<polygon fill="none" stroke="black" points="529,-236 452,-236 452,-200 529,-200 529,-236"/>
<text text-anchor="middle" x="490.5" y="-215.2" font-family="Courier,monospace" font-size="11.00">ORRemover</text>
</g>
<!-- \\lukaszmakuch\\LmCondition\\CompositeSimplifier\\ORRemover\\Composer -->
<g id="node9" class="node"><title>\\lukaszmakuch\\LmCondition\\CompositeSimplifier\\ORRemover\\Composer</title>
<polygon fill="none" stroke="black" points="526,-182 455,-182 455,-146 526,-146 526,-182"/>
<text text-anchor="middle" x="490.5" y="-161.2" font-family="Courier,monospace" font-size="11.00">Composer</text>
</g>
<!-- \\lukaszmakuch\\LmCondition\\ConditionAbstract -->
<g id="node10" class="node"><title>\\lukaszmakuch\\LmCondition\\ConditionAbstract</title>
<polygon fill="none" stroke="black" points="315.5,-122 184.5,-122 184.5,-86 315.5,-86 315.5,-122"/>
<text text-anchor="start" x="216" y="-107.2" font-family="Courier,monospace" font-size="11.00">«abstract»</text>
<text text-anchor="start" x="192.5" y="-95.2" font-family="Courier,monospace" font-size="11.00">ConditionAbstract</text>
</g>
<!-- \\lukaszmakuch\\LmCondition\\Condition -->
<g id="node13" class="node"><title>\\lukaszmakuch\\LmCondition\\Condition</title>
<polygon fill="none" stroke="black" points="109,-122 32,-122 32,-86 109,-86 109,-122"/>
<text text-anchor="middle" x="70.5" y="-101.2" font-family="Courier,monospace" font-size="11.00">Condition</text>
</g>
<!-- \\lukaszmakuch\\LmCondition\\ConditionAbstract&#45;&gt;\\lukaszmakuch\\LmCondition\\Condition -->
<g id="edge2" class="edge"><title>\\lukaszmakuch\\LmCondition\\ConditionAbstract&#45;&gt;\\lukaszmakuch\\LmCondition\\Condition</title>
<path fill="none" stroke="black" stroke-dasharray="1,5" d="M184.416,-104C162.892,-104 139.314,-104 119.297,-104"/>
<polygon fill="none" stroke="black" points="119.183,-100.5 109.183,-104 119.183,-107.5 119.183,-100.5"/>
</g>
<!-- \\lukaszmakuch\\LmCondition\\ConditionComposite -->
<g id="node11" class="node"><title>\\lukaszmakuch\\LmCondition\\ConditionComposite</title>
<polygon fill="none" stroke="black" points="559.5,-122 421.5,-122 421.5,-86 559.5,-86 559.5,-122"/>
<text text-anchor="middle" x="490.5" y="-101.2" font-family="Courier,monospace" font-size="11.00">ConditionComposite</text>
</g>
<!-- \\lukaszmakuch\\LmCondition\\ConditionComposite&#45;&gt;\\lukaszmakuch\\LmCondition\\ConditionAbstract -->
<g id="edge3" class="edge"><title>\\lukaszmakuch\\LmCondition\\ConditionComposite&#45;&gt;\\lukaszmakuch\\LmCondition\\ConditionAbstract</title>
<path fill="none" stroke="black" d="M421.475,-104C391.663,-104 356.578,-104 326.011,-104"/>
<polygon fill="none" stroke="black" points="325.832,-100.5 315.832,-104 325.832,-107.5 325.832,-100.5"/>
</g>
<!-- \\lukaszmakuch\\LmCondition\\Context -->
<g id="node12" class="node"><title>\\lukaszmakuch\\LmCondition\\Context</title>
<polygon fill="none" stroke="black" points="522.5,-68 458.5,-68 458.5,-32 522.5,-32 522.5,-68"/>
<text text-anchor="middle" x="490.5" y="-47.2" font-family="Courier,monospace" font-size="11.00">Context</text>
</g>
</g>
</svg>
